@startuml EntityRelationship

package "MySQL" as target_system <<Database>> {

    ' ユーザーテーブル
    entity "ユーザー" as users {
        + ユーザーID (user_id) [PK]
        --
        ニックネーム (nickname)
        Eメール     (e_mail)
        パスワード  (password)
        苗字       (first_name)
        名前       (last_name)
        苗字カナ    (first_name_kana)
        名前カナ    (last_name_kana)
        生年月日    (birthday)
       }

    ' 商品テーブル
    entity "商品" as items {
        + 商品ID   (item_id) [PK]
        --
        商品名     (name)
        商品説明   (explain)
        カテゴリー (category_id)
        商品状態   (condition_id)
        発送負担   (sending_cost_id)
        発送地域   (sending_prefecture_id)
        発送日数   (sending_days)
        価格      (price)
        ユーザーID (user_id)
       }
    ' 住所テーブル
    entity "住所" as addresses {
        + 住所ID     (address_id) [PK]
        --
        郵便番号      (postal_code)
        都道府県      (prefecture_id)  
        市区町村      (city)        
        番地          (house_number)
        建物名        (building_name)
        電話番号      (phone_number)
        購入ID        (orders_id) [PK]
       }

    ' 購入テーブル
    entity "購入" as orders {
        + 購入ID    (orders_id) [PK]
        --
          ユーザーID (user_id) [PK]
          商品ID    (item_id) [PK]
    }

    users ||..o{ items
    users ||..o{ orders
    items ||..|| orders
    addresses ||..|| orders
}



@enduml


